<?xml version="1.0" standalone="no"?>
<!DOCTYPE svg PUBLIC "-//W3C//DTD SVG 20010904//EN"
 "http://www.w3.org/TR/2001/REC-SVG-20010904/DTD/svg10.dtd">
<svg version="1.0" xmlns="http://www.w3.org/2000/svg"
 width="275.000000pt" height="275.000000pt" viewBox="0 0 275.000000 275.000000"
 preserveAspectRatio="xMidYMid meet">
<metadata>
Created by potrace 1.11, written by Peter Selinger 2001-2013
</metadata>
<g transform="translate(0.000000,275.000000) scale(0.100000,-0.100000)"
fill="#000000" stroke="none">
<path d="M1238 2735 c-1 -2 -27 -6 -57 -10 -30 -4 -63 -9 -75 -11 -12 -3 -31
-7 -44 -10 -102 -21 -292 -100 -398 -164 -362 -221 -597 -593 -649 -1025 -16
-135 -16 -159 0 -280 23 -167 64 -314 124 -441 170 -356 473 -618 841 -727 47
-14 99 -28 115 -31 17 -4 41 -9 55 -11 257 -50 560 -6 818 117 268 129 516
376 638 636 74 158 102 256 130 447 25 179 6 363 -61 574 -47 147 -161 352
-248 445 -19 20 -32 36 -29 36 9 0 -124 126 -165 157 -21 15 -40 31 -43 34
-12 15 -150 98 -205 124 -33 15 -71 33 -85 40 -38 19 -219 73 -270 81 -25 3
-54 9 -65 11 -23 6 -321 13 -327 8z"/>
</g>
</svg>
